<svg width="170" height="115" viewBox="0 0 170 115" fill="none" xmlns="http://www.w3.org/2000/svg">
<path d="M127.766 3.00012H42.234C38.2975 3.00012 35.1064 6.10011 35.1064 9.92413V93.0123C35.1064 96.8363 38.2975 99.9363 42.234 99.9363H127.766C131.702 99.9363 134.894 96.8363 134.894 93.0123V9.92413C134.894 6.10011 131.702 3.00012 127.766 3.00012Z" fill="#1B1B1B"/>
<g filter="url(#filter0_d_2439_15841)">
<path d="M107.464 11.5532H21.1952C19.4305 11.5532 18 13.012 18 14.8116V31.1034C18 32.9029 19.4305 34.3617 21.1952 34.3617H107.464C109.229 34.3617 110.66 32.9029 110.66 31.1034V14.8116C110.66 13.012 109.229 11.5532 107.464 11.5532Z" fill="#353535"/>
<path opacity="0.5" d="M50.0744 16.5426H31.5425C30.3616 16.5426 29.4042 17.5 29.4042 18.6809C29.4042 19.8618 30.3616 20.8192 31.5425 20.8192H50.0744C51.2554 20.8192 52.2127 19.8618 52.2127 18.6809C52.2127 17.5 51.2554 16.5426 50.0744 16.5426Z" fill="#A9A9A9"/>
<path opacity="0.2" d="M62.9042 25.0957H31.5425C30.3616 25.0957 29.4042 26.0531 29.4042 27.234C29.4042 28.415 30.3616 29.3723 31.5425 29.3723H62.9042C64.0852 29.3723 65.0425 28.415 65.0425 27.234C65.0425 26.0531 64.0852 25.0957 62.9042 25.0957Z" fill="#A9A9A9"/>
</g>
<g filter="url(#filter1_d_2439_15841)">
<path d="M118.869 68.5745H32.5995C30.8348 68.5745 29.4043 70.0333 29.4043 71.8328V88.1246C29.4043 89.9242 30.8348 91.383 32.5995 91.383H118.869C120.633 91.383 122.064 89.9242 122.064 88.1246V71.8328C122.064 70.0333 120.633 68.5745 118.869 68.5745Z" fill="#353535"/>
<path opacity="0.5" d="M61.4787 73.564H42.9468C41.7658 73.564 40.8085 74.5213 40.8085 75.7023C40.8085 76.8832 41.7658 77.8406 42.9468 77.8406H61.4787C62.6596 77.8406 63.617 76.8832 63.617 75.7023C63.617 74.5213 62.6596 73.564 61.4787 73.564Z" fill="#A9A9A9"/>
<path opacity="0.2" d="M74.3085 82.1171H42.9468C41.7658 82.1171 40.8085 83.0744 40.8085 84.2554C40.8085 85.4363 41.7658 86.3937 42.9468 86.3937H74.3085C75.4894 86.3937 76.4468 85.4363 76.4468 84.2554C76.4468 83.0744 75.4894 82.1171 74.3085 82.1171Z" fill="#A9A9A9"/>
</g>
<g filter="url(#filter2_d_2439_15841)">
<path d="M148.805 40.064H62.5356C60.7709 40.064 59.3404 41.5228 59.3404 43.3223V59.6141C59.3404 61.4137 60.7709 62.8725 62.5356 62.8725H148.805C150.569 62.8725 152 61.4137 152 59.6141V43.3223C152 41.5228 150.569 40.064 148.805 40.064Z" fill="#353535"/>
<path opacity="0.5" d="M91.4148 45.0532H72.8829C71.702 45.0532 70.7446 46.0106 70.7446 47.1915C70.7446 48.3725 71.702 49.3298 72.8829 49.3298H91.4148C92.5958 49.3298 93.5531 48.3725 93.5531 47.1915C93.5531 46.0106 92.5958 45.0532 91.4148 45.0532Z" fill="#A9A9A9"/>
<path opacity="0.2" d="M104.245 53.6064H72.8829C71.702 53.6064 70.7446 54.5638 70.7446 55.7447C70.7446 56.9257 71.702 57.883 72.8829 57.883H104.245C105.426 57.883 106.383 56.9257 106.383 55.7447C106.383 54.5638 105.426 53.6064 104.245 53.6064Z" fill="#A9A9A9"/>
</g>
<defs>
<filter id="filter0_d_2439_15841" x="0.893616" y="0.148966" width="126.872" height="57.0212" filterUnits="userSpaceOnUse" color-interpolation-filters="sRGB">
<feFlood flood-opacity="0" result="BackgroundImageFix"/>
<feColorMatrix in="SourceAlpha" type="matrix" values="0 0 0 0 0 0 0 0 0 0 0 0 0 0 0 0 0 0 127 0" result="hardAlpha"/>
<feOffset dy="5.70213"/>
<feGaussianBlur stdDeviation="8.55319"/>
<feComposite in2="hardAlpha" operator="out"/>
<feColorMatrix type="matrix" values="0 0 0 0 0 0 0 0 0 0 0 0 0 0 0 0 0 0 0.06 0"/>
<feBlend mode="normal" in2="BackgroundImageFix" result="effect1_dropShadow_2439_15841"/>
<feBlend mode="normal" in="SourceGraphic" in2="effect1_dropShadow_2439_15841" result="shape"/>
</filter>
<filter id="filter1_d_2439_15841" x="12.2979" y="57.1702" width="126.872" height="57.0212" filterUnits="userSpaceOnUse" color-interpolation-filters="sRGB">
<feFlood flood-opacity="0" result="BackgroundImageFix"/>
<feColorMatrix in="SourceAlpha" type="matrix" values="0 0 0 0 0 0 0 0 0 0 0 0 0 0 0 0 0 0 127 0" result="hardAlpha"/>
<feOffset dy="5.70213"/>
<feGaussianBlur stdDeviation="8.55319"/>
<feComposite in2="hardAlpha" operator="out"/>
<feColorMatrix type="matrix" values="0 0 0 0 0 0 0 0 0 0 0 0 0 0 0 0 0 0 0.06 0"/>
<feBlend mode="normal" in2="BackgroundImageFix" result="effect1_dropShadow_2439_15841"/>
<feBlend mode="normal" in="SourceGraphic" in2="effect1_dropShadow_2439_15841" result="shape"/>
</filter>
<filter id="filter2_d_2439_15841" x="42.234" y="28.6597" width="126.872" height="57.0212" filterUnits="userSpaceOnUse" color-interpolation-filters="sRGB">
<feFlood flood-opacity="0" result="BackgroundImageFix"/>
<feColorMatrix in="SourceAlpha" type="matrix" values="0 0 0 0 0 0 0 0 0 0 0 0 0 0 0 0 0 0 127 0" result="hardAlpha"/>
<feOffset dy="5.70213"/>
<feGaussianBlur stdDeviation="8.55319"/>
<feComposite in2="hardAlpha" operator="out"/>
<feColorMatrix type="matrix" values="0 0 0 0 0 0 0 0 0 0 0 0 0 0 0 0 0 0 0.06 0"/>
<feBlend mode="normal" in2="BackgroundImageFix" result="effect1_dropShadow_2439_15841"/>
<feBlend mode="normal" in="SourceGraphic" in2="effect1_dropShadow_2439_15841" result="shape"/>
</filter>
</defs>
</svg>
